{
	"asset":{
		"generator":"Khronos glTF Blender I/O v4.0.44",
		"version":"2.0"
	},
	"extensionsUsed":[
		"KHR_materials_specular",
		"KHR_materials_sheen",
		"KHR_materials_ior"
	],
	"scene":0,
	"scenes":[
		{
			"name":"Scene",
			"nodes":[
				0
			]
		}
	],
	"nodes":[
		{
			"mesh":0,
			"name":"BezierCurve.002"
		}
	],
	"materials":[
		{
			"doubleSided":true,
			"emissiveFactor":[
				0.04470932217184753,
				0.002243207075106668,
				0.003452551159110584
			],
			"extensions":{
				"KHR_materials_specular":{
					"specularFactor":0.036363635212183
				},
				"KHR_materials_sheen":{
					"sheenColorFactor":[
						1.0,
						1.0,
						1.0
					]
				},
				"KHR_materials_ior":{
					"ior":7.799998760223389
				}
			},
			"name":"Material.005",
			"pbrMetallicRoughness":{
				"baseColorFactor":[
					0.22064027190208435,
					0,
					0.01065145991742611,
					1
				],
				"metallicFactor":0.2454545497894287,
				"roughnessFactor":0.6363636255264282
			}
		}
	],
	"meshes":[
		{
			"extras":{
				"targetNames":[
					"Key 1"
				]
			},
			"name":"BezierCurve.004",
			"primitives":[
				{
					"attributes":{
						"POSITION":0,
						"NORMAL":1
					},
					"indices":2,
					"material":0,
					"targets":[
						{
							"POSITION":3,
							"NORMAL":4
						}
					]
				}
			],
			"weights":[
				1
			]
		}
	],
	"accessors":[
		{
			"bufferView":0,
			"componentType":5126,
			"count":2639,
			"max":[
				11.842793464660645,
				2.3398985862731934,
				4.354376316070557
			],
			"min":[
				-9.084037780761719,
				-0.43261635303497314,
				-6.215777397155762
			],
			"type":"VEC3"
		},
		{
			"bufferView":1,
			"componentType":5126,
			"count":2639,
			"type":"VEC3"
		},
		{
			"bufferView":2,
			"componentType":5123,
			"count":15162,
			"type":"SCALAR"
		},
		{
			"componentType":5126,
			"count":2639,
			"max":[
				0.4311339855194092,
				0,
				0.9954060316085815
			],
			"min":[
				-0.961747407913208,
				-1.094926118850708,
				-0.7068661451339722
			],
			"sparse":{
				"count":1577,
				"indices":{
					"bufferView":3,
					"componentType":5123
				},
				"values":{
					"bufferView":4
				}
			},
			"type":"VEC3"
		},
		{
			"bufferView":5,
			"componentType":5126,
			"count":2639,
			"type":"VEC3"
		}
	],
	"bufferViews":[
		{
			"buffer":0,
			"byteLength":31668,
			"byteOffset":0,
			"target":34962
		},
		{
			"buffer":0,
			"byteLength":31668,
			"byteOffset":31668,
			"target":34962
		},
		{
			"buffer":0,
			"byteLength":30324,
			"byteOffset":63336,
			"target":34963
		},
		{
			"buffer":0,
			"byteLength":3154,
			"byteOffset":93660
		},
		{
			"buffer":0,
			"byteLength":18924,
			"byteOffset":96816
		},
		{
			"buffer":0,
			"byteLength":31668,
			"byteOffset":115740,
			"target":34962
		}
	],
	"buffers":[
		{
			"byteLength":147408,
			"uri":"BLOOD.bin"
		}
	]
}
